<svg width="18" height="18" viewBox="0 0 18 18" fill="none" xmlns="http://www.w3.org/2000/svg">
<path d="M14.25 1.5L10.5 4.875V13.125L14.25 9.75V1.5ZM4.875 3.75C3.4125 3.75 1.8375 4.05 0.75 4.875V15.87C0.75 16.0575 0.9375 16.245 1.125 16.245C1.2 16.245 1.2375 16.1925 1.3125 16.1925C2.325 15.705 3.7875 15.375 4.875 15.375C6.3375 15.375 7.9125 15.675 9 16.5C10.0125 15.8625 11.85 15.375 13.125 15.375C14.3625 15.375 15.6375 15.6075 16.6875 16.17C16.7625 16.2075 16.8 16.1925 16.875 16.1925C17.0625 16.1925 17.25 16.005 17.25 15.8175V4.875C16.8 4.5375 16.3125 4.3125 15.75 4.125V14.25C14.925 13.9875 14.025 13.875 13.125 13.875C11.85 13.875 10.0125 14.3625 9 15V4.875C7.9125 4.05 6.3375 3.75 4.875 3.75Z" fill="#0A1225"/>
</svg>
