<svg width="27" height="28" viewBox="0 0 27 28" fill="none" xmlns="http://www.w3.org/2000/svg">
<path d="M24.75 14C24.75 16.9837 23.5647 19.8452 21.4549 21.9549C19.3452 24.0647 16.4837 25.25 13.5 25.25C12.0226 25.25 10.5597 24.959 9.19481 24.3936C7.8299 23.8283 6.58971 22.9996 5.54505 21.9549C3.43526 19.8452 2.25 16.9837 2.25 14C2.25 11.0163 3.43526 8.15483 5.54505 6.04505C7.65483 3.93526 10.5163 2.75 13.5 2.75C14.9774 2.75 16.4403 3.04099 17.8052 3.60636C19.1701 4.17172 20.4103 5.00039 21.4549 6.04505C22.4996 7.08971 23.3283 8.3299 23.8936 9.69481C24.459 11.0597 24.75 12.5226 24.75 14ZM11.25 20.75L18 14L11.25 7.25L9.675 8.825L14.85 14L9.675 19.175L11.25 20.75Z" fill="#009BA8"/>
</svg>
