<svg width="100%" height="150" viewBox="0 0 1590 71" fill="white" xmlns="http://www.w3.org/2000/svg">
<path d="M1213.5 53C1298.94 53 1250.5 57.9912 1590 57.9912V66.8827H-10V57.9912H88.8987C276.616 57.9912 359.216 44.5 485 44.5C737.5 44.5 750.821 12.7364 962 21C1148.5 28.2978 1106.7 53 1213.5 53Z" fill="#4E7E9A"/>
<path d="M208 0C122.562 0 78 32 -10 48.9912V66.8828H1590V57.9912H1491.1H1135.38C978.151 57.9912 711.222 58.6086 486 45C320.5 35 314.798 0 208 0Z" fill="#A6BFCC"/>
<path d="M1439.5 31.5C1500.54 18.9415 1536.63 31.5 1590 31.5V65H423V46.9314H495.134H754.587C869.267 46.9314 1025.06 27.2937 1178.88 46.9314C1293 61.5 1364.5 46.9313 1439.5 31.5Z" fill="#66C3CB"/>
<path d="M192.223 6.88281C106.785 6.88281 63.1762 46.4912 -10 46.4912V70.3828H1590V32C1388.5 32 1338 82.3828 1135.38 46.4912C884.093 1.97836 766.261 46.4912 553.655 46.4912C341.048 46.4912 299.021 6.88281 192.223 6.88281Z" fill="white"/>
</svg>
