<svg width="1600" height="159" viewBox="0 0 1600 159" fill="none" xmlns="http://www.w3.org/2000/svg">
<path opacity="0.5" d="M298.832 53.892C215.254 64.1757 174.207 33.888 89.8876 33.888V74H881.898V29.2391C784.72 25.999 751.833 64.1757 671.717 56.7095C573.374 47.5445 541.9 18 485.522 18C429.144 18 384.535 43.3467 298.832 53.892Z" fill="#33AFB9"/>
<path opacity="0.5" d="M891.092 53.892C807.514 64.1757 766.467 33.888 682.147 33.888V74H1474.16V29.2391C1376.98 25.999 1344.09 64.1757 1263.98 56.7095C1165.63 47.5445 1134.16 18 1077.78 18C1021.4 18 976.795 43.3467 891.092 53.892Z" fill="#33AFB9"/>
<path d="M422.104 64.2179C253.263 82.5178 170.34 28.6208 0 28.6208V159H1600V20.3482C1403.68 14.5824 1337.25 82.5178 1175.4 69.2315C976.727 52.9225 913.144 0.348206 799.251 0.348206C685.357 0.348206 595.24 45.4526 422.104 64.2179Z" fill="white"/>
</svg>
