<svg width="18" height="18" viewBox="0 0 18 18" fill="none" xmlns="http://www.w3.org/2000/svg">
<g clip-path="url(#clip0_20_269)">
<path d="M13.5 12H13.065L12.4575 11.3925C13.125 10.5 13.5 9.375 13.5 8.25C13.5 5.3475 11.1525 3 8.25 3C7.125 3 6 3.375 5.0925 4.05C2.775 5.79 2.3025 9.0825 4.0425 11.4C5.7825 13.7175 9.075 14.19 11.3925 12.45L12 13.0575V13.5L15.75 17.25L17.25 15.75L13.5 12ZM8.25 12C6.18 12 4.5 10.32 4.5 8.25C4.5 6.18 6.18 4.5 8.25 4.5C10.32 4.5 12 6.18 12 8.25C12 10.32 10.32 12 8.25 12ZM2.25 4.5L0.75 6V0.75H6L4.5 2.25H2.25V4.5ZM15.75 0.75V6L14.25 4.5V2.25H12L10.5 0.75H15.75ZM4.5 14.25L6 15.75H0.75V10.5L2.25 12V14.25H4.5Z" fill="#0A1225"/>
</g>
<defs>
<clipPath id="clip0_20_269">
<rect width="18" height="18" fill="white"/>
</clipPath>
</defs>
</svg>
