<svg width="390" height="660" viewBox="0 0 390 660" fill="none" xmlns="http://www.w3.org/2000/svg">
<mask id="mask0_17_1228" style="mask-type:alpha" maskUnits="userSpaceOnUse" x="0" y="0" width="390" height="660">
<rect width="390" height="660" rx="40" fill="#009BA8"/>
<rect x="0.5" y="0.5" width="389" height="659" rx="39.5" stroke="#00727B" stroke-opacity="0.7"/>
</mask>
<g mask="url(#mask0_17_1228)">
<path d="M-590.834 211.427C-568.242 235.151 -499.289 275.481 -404.216 247.013C-285.375 211.427 -188.817 23.881 70.2194 127.753C277.449 210.85 486.473 139.294 565.081 93.1287C589.221 76.4579 646.042 51.9648 680.208 87.3581C722.917 131.6 760.055 229.701 634.714 285.484C509.374 341.267 475.022 139.294 650.498 139.294" stroke="white" stroke-opacity="0.21" stroke-linecap="round"/>
<path d="M-590.834 302.645C-568.242 326.369 -499.289 366.699 -404.216 338.231C-285.375 302.645 -173.962 53.696 85.0745 157.568C292.304 240.665 478.117 159.491 556.725 113.326C580.865 96.6553 644.185 77.9325 678.351 113.326C721.06 157.567 721.06 238.357 626.358 269.134C521.264 303.288 523.301 157.568 644.927 157.568C666.901 156.667 701.377 174.448 652.355 222.006C591.077 281.455 544.655 229.701 606.861 200.366C617.538 194.596 630.905 199.768 621.252 214.312C611.039 229.701 607.016 225.052 601.755 222.006" stroke="white" stroke-opacity="0.21" stroke-linecap="round"/>
<path d="M-590.834 430.489C-568.242 454.213 -499.289 494.543 -404.216 466.075C-285.375 430.489 -142.395 79.6674 116.642 183.539C323.871 266.636 476.724 175.361 555.332 129.196C579.472 112.525 646.774 90.1104 676.959 129.196C702.955 162.858 699.706 233.067 618.931 255.669C532.533 279.845 546.976 191.229 620.324 178.727C639.458 175.465 664.425 181.131 640.285 212.389C596.811 268.683 579.008 209.984 605.468 212.389" stroke="white" stroke-opacity="0.21" stroke-linecap="round"/>
<path d="M210.415 649.034C235.173 638.455 292.489 598.06 323.685 521.118C362.68 424.941 402.603 335.496 438.812 294.14C426.433 322.993 409.102 395.895 438.812 456.68C475.95 532.66 578.079 599.022 577.151 690.391" stroke="white" stroke-opacity="0.21" stroke-linecap="round"/>
<path d="M-601.975 132.562C-566.849 166.866 -512.845 231.143 -413.501 199.886C-307.17 166.431 -204.136 -42.9613 47.4725 62.353C299.081 167.667 354.788 155.645 512.16 74.856C669.531 -5.93311 708.99 64.2765 728.952 102.267C744.921 132.659 772.743 157.889 784.658 166.705" stroke="white" stroke-opacity="0.21" stroke-linecap="round"/>
<path d="M518.659 165.262C475.331 199.565 358.595 274.904 238.268 301.834C87.86 335.496 -18.9113 330.687 -119.183 485.533C-199.401 609.409 -245.452 669.873 -258.45 684.62" stroke="white" stroke-opacity="0.21" stroke-linecap="round"/>
<path d="M-603.832 587.481C-599.19 586.519 -327.155 632.684 -205.529 459.565C-83.9027 286.445 22.8686 267.21 179.776 264.324C305.302 262.016 423.338 213.992 466.666 190.268" stroke="white" stroke-opacity="0.21" stroke-linecap="round"/>
<path d="M42.8303 10.6311C110.762 67.8567 282.926 162.88 428.135 85.1687C573.344 7.45728 667.52 3.09724 696.456 10.6311" stroke="white" stroke-opacity="0.21" stroke-linecap="round"/>
<path d="M157.029 -11.0088C168.016 26.6607 216.171 97.5756 320.9 79.8789C425.628 62.1823 504.732 19.9283 531.193 1.01339" stroke="white" stroke-opacity="0.21" stroke-linecap="round"/>
<path d="M257.301 4.37964C259.622 21.371 273.363 54.4881 309.758 51.0257C346.153 47.5633 395.175 18.4857 415.137 4.37964" stroke="white" stroke-opacity="0.21" stroke-linecap="round"/>
<path d="M109.678 525.662C92.0379 548.744 131.961 572.019 156.101 542.012C186.275 504.503 152.851 465.551 109.678 482.382C71.6005 497.226 35.4027 606.451 126.39 611.74C217.378 617.03 256.837 561.247 304.652 465.551C335.729 403.354 421.946 269.669 479.664 215.489" stroke="white" stroke-opacity="0.21" stroke-linecap="round"/>
<path d="M120.356 526.623C129.64 531.592 148.58 536.626 150.066 517.005C151.923 492.48 124.998 487.19 108.75 502.098C92.5022 517.005 58.6139 592.986 136.139 592.986C215.451 592.986 248.017 531.913 270.3 480.939C292.582 429.965 393.319 258.769 453.668 222.702" stroke="white" stroke-opacity="0.21" stroke-linecap="round"/>
<path d="M106.893 568.941C120.82 581.444 170.399 581.733 190.453 519.41C215.521 441.506 122.677 435.735 73.0048 470.359C23.333 504.983 63.7203 589.62 45.1514 652.616" stroke="white" stroke-opacity="0.21" stroke-linecap="round"/>
<path d="M199.273 551.629C213.974 529.348 234.554 475.553 199.273 438.621C155.172 392.455 46.0799 416.5 0.121798 485.748C-45.8363 554.995 -48.1574 569.422 -142.395 706.956" stroke="white" stroke-opacity="0.21" stroke-linecap="round"/>
<path d="M226.663 530.951C243.065 491.038 255.63 407.844 174.67 394.379C73.469 377.548 14.5127 403.997 -52.3354 482.382C-105.814 545.089 -154.774 633.861 -172.569 670.409" stroke="white" stroke-opacity="0.21" stroke-linecap="round"/>
<path d="M403.532 252.518C364.073 284.897 279.863 369.854 258.694 450.643" stroke="white" stroke-opacity="0.21" stroke-linecap="round"/>
</g>
</svg>
