<svg width="1448" height="668" viewBox="0 0 1448 668" fill="none" xmlns="http://www.w3.org/2000/svg">
<mask id="mask0_17_873" style="mask-type:alpha" maskUnits="userSpaceOnUse" x="4" y="0" width="1440" height="660">
<rect x="4" width="1440" height="660" rx="40" fill="#009BA8"/>
<rect x="4.5" y="0.5" width="1439" height="659" rx="39.5" stroke="#00727B" stroke-opacity="0.7"/>
</mask>
<g mask="url(#mask0_17_873)">
<path d="M1525.41 781.827C1520.91 771.325 1592.92 652.805 1376.13 548.536C1220.22 473.545 943.308 232.731 1229.11 111.209" stroke="white" stroke-opacity="0.21" stroke-linecap="round"/>
<path d="M1860.45 212.734C1849.03 212.644 1734.14 86.4729 1551.67 243.232C1420.43 355.976 1106.09 474.273 1127.3 215.158" stroke="white" stroke-opacity="0.21" stroke-linecap="round"/>
<path d="M1928.6 389.01C1917.18 388.92 1819.65 301.011 1637.18 457.77C1505.95 570.514 1261.36 454.77 1160.85 340" stroke="white" stroke-opacity="0.21" stroke-linecap="round"/>
<path d="M-671.726 204.976C-635.22 241.982 -523.8 304.893 -370.173 260.485C-178.139 204.976 -22.1119 -87.5759 396.462 74.4526C731.321 204.075 1069.08 92.4558 1196.1 20.4431C1235.11 -5.56149 1326.93 -43.7682 1382.14 11.4415C1451.15 80.4537 1511.16 233.481 1308.62 320.496C1106.09 407.511 1050.58 92.4558 1334.13 92.4558" stroke="white" stroke-opacity="0.21" stroke-linecap="round"/>
<path d="M-671.726 347.266C-635.22 384.273 -523.8 447.184 -370.173 402.776C-178.139 347.266 1.89235 -41.0674 420.466 120.961C755.325 250.584 1055.58 123.962 1182.6 51.949C1221.61 25.9444 1323.93 -3.26109 1379.13 51.9486C1448.15 120.961 1448.15 246.984 1295.12 294.992C1125.3 348.269 1128.59 120.961 1325.13 120.961C1360.63 119.555 1416.34 147.292 1337.13 221.479C1238.11 314.211 1163.1 233.481 1263.61 187.723C1280.87 178.721 1302.47 186.788 1286.87 209.477C1270.37 233.481 1263.86 226.229 1255.36 221.479" stroke="white" stroke-opacity="0.21" stroke-linecap="round"/>
<path d="M-671.726 546.689C-635.22 583.695 -523.8 646.606 -370.173 602.198C-178.139 546.689 52.9013 -0.554993 471.475 161.474C806.334 291.096 1053.33 148.717 1180.35 76.7043C1219.36 50.6997 1328.11 15.7351 1376.88 76.7039C1418.89 129.213 1413.64 238.732 1283.12 273.989C1143.51 311.7 1166.85 173.469 1285.37 153.967C1316.29 148.879 1356.63 157.717 1317.62 206.476C1247.37 294.288 1218.61 202.725 1261.36 206.476" stroke="white" stroke-opacity="0.21" stroke-linecap="round"/>
<path d="M1367.13 107.459C1367.13 86.9554 1342.23 52.8494 1242.61 80.4543C1118.09 114.96 987.566 263.487 1109.09 413.513C1230.61 563.54 1482.65 597.296 1499.16 869.593" stroke="white" stroke-opacity="0.21" stroke-linecap="round"/>
<path d="M1049.08 243.982C1017.57 276.988 973.464 404.811 1073.08 514.03C1197.6 650.554 1398.64 766.074 1358.13 947.606" stroke="white" stroke-opacity="0.21" stroke-linecap="round"/>
<path d="M623.002 887.596C663.009 871.093 755.625 808.082 806.034 688.061C869.045 538.034 933.556 398.51 992.067 333.998C972.063 379.006 944.058 492.726 992.067 587.543C1052.08 706.064 1217.11 809.582 1215.61 952.107" stroke="white" stroke-opacity="0.21" stroke-linecap="round"/>
<path d="M-689.729 81.9551C-632.969 135.464 -545.704 235.731 -385.176 186.974C-213.356 134.787 -46.8662 -191.843 359.705 -27.5637C766.277 136.715 856.293 117.962 1110.59 -8.06048C1364.88 -134.083 1428.64 -24.5633 1460.9 34.6971C1486.7 82.1055 1531.66 121.462 1550.92 135.215" stroke="white" stroke-opacity="0.21" stroke-linecap="round"/>
<path d="M1121.09 132.963C1051.08 186.472 862.444 303.993 668.01 346C424.967 398.51 252.436 391.008 90.4079 632.551C-39.2149 825.785 -113.628 920.102 -134.632 943.106" stroke="white" stroke-opacity="0.21" stroke-linecap="round"/>
<path d="M-692.73 791.579C-685.229 790.079 -245.651 862.091 -49.1167 592.044C147.418 321.996 319.948 291.991 573.493 287.49C776.329 283.889 967.062 208.976 1037.07 171.97" stroke="white" stroke-opacity="0.21" stroke-linecap="round"/>
<path d="M352.204 -108.244C461.973 -18.9783 740.172 129.248 974.814 8.0265C1209.45 -113.195 1361.63 -119.996 1408.39 -108.244" stroke="white" stroke-opacity="0.21" stroke-linecap="round"/>
<path d="M536.737 -142C554.49 -83.2396 632.303 27.3798 801.533 -0.225025C970.763 -27.8299 1098.59 -93.7415 1141.34 -123.247" stroke="white" stroke-opacity="0.21" stroke-linecap="round"/>
<path d="M460.223 695.147C431.718 731.154 496.23 767.46 535.236 720.652C583.995 662.142 529.985 601.381 460.223 627.635C398.694 650.792 340.202 821.17 487.228 829.421C634.254 837.673 698.015 750.657 775.279 601.381C825.495 504.361 964.812 295.827 1058.08 211.312" stroke="white" stroke-opacity="0.21" stroke-linecap="round"/>
<path d="M477.476 696.648C492.479 704.399 523.084 712.25 525.485 681.645C528.485 643.388 484.977 635.137 458.723 658.391C432.468 681.645 377.708 800.166 502.98 800.166C631.139 800.166 683.762 704.899 719.769 625.385C755.775 545.871 918.554 278.824 1016.07 222.564" stroke="white" stroke-opacity="0.21" stroke-linecap="round"/>
<path d="M455.722 762.659C478.226 782.163 558.34 782.613 590.746 685.395C631.253 563.874 481.227 554.872 400.963 608.882C320.699 662.891 385.96 794.915 355.955 893.182" stroke="white" stroke-opacity="0.21" stroke-linecap="round"/>
<path d="M604.999 735.654C628.753 700.898 662.009 616.983 604.999 559.373C533.736 487.361 357.455 524.867 283.192 632.886C208.929 740.905 205.178 763.409 52.9013 977.947" stroke="white" stroke-opacity="0.21" stroke-linecap="round"/>
<path d="M649.256 703.399C675.761 641.138 696.065 511.365 565.242 490.361C401.713 464.107 306.446 505.364 198.427 627.635C112.012 725.453 32.8978 863.927 4.1427 920.937" stroke="white" stroke-opacity="0.21" stroke-linecap="round"/>
<path d="M935.057 269.073C871.295 319.581 735.222 452.105 701.016 578.127" stroke="white" stroke-opacity="0.21" stroke-linecap="round"/>
</g>
</svg>
