<svg width="20" height="20" viewBox="0 0 20 20" fill="none" xmlns="http://www.w3.org/2000/svg">
<path d="M2.5 5.83333C2.5 5.3731 2.8731 5 3.33333 5H16.6667C17.1269 5 17.5 5.3731 17.5 5.83333C17.5 6.29357 17.1269 6.66667 16.6667 6.66667H3.33333C2.8731 6.66667 2.5 6.29357 2.5 5.83333ZM5.25 10C5.25 9.53976 5.6231 9.16667 6.08333 9.16667H13.9167C14.3769 9.16667 14.75 9.53976 14.75 10C14.75 10.4602 14.3769 10.8333 13.9167 10.8333H6.08333C5.6231 10.8333 5.25 10.4602 5.25 10ZM2.5 14.1667C2.5 13.7064 2.8731 13.3333 3.33333 13.3333H16.6667C17.1269 13.3333 17.5 13.7064 17.5 14.1667C17.5 14.6269 17.1269 15 16.6667 15H3.33333C2.8731 15 2.5 14.6269 2.5 14.1667Z" fill="white"/>
</svg>
