<svg width="390" height="46" viewBox="0 0 390 46" fill="none" xmlns="http://www.w3.org/2000/svg">
<path d="M147.233 33.2073C202.324 33.2073 333.258 26.4369 390 37.3928V43.1261H-641.679V37.3928H-577.909H-268.985C-167.603 37.3928 -151.102 8.21256 -14.934 13.5409C105.321 18.2465 78.3699 33.2073 147.233 33.2073Z" fill="#4E7E9A"/>
<path d="M-501.113 0C-556.203 0 -584.937 20.6336 -641.679 31.5895V43.126H390V31.5895H326.23H96.8622C-4.51959 31.5895 -121.326 12.3268 -266.406 23.2128C-403.11 33.4703 -432.25 0 -501.113 0Z" fill="#A6BFCC"/>
<path d="M294.894 11.6064C335.076 11.6064 355.585 30.2614 390 30.2614V41.912H-362.481V30.2614H-315.969H-148.674H124.913C224.902 30.2614 244.667 11.6064 294.894 11.6064Z" fill="#66C3CB"/>
<path d="M-511.285 4.43799C-566.376 4.43799 -594.495 29.9775 -641.679 29.9775V45.3827H390V29.9775H326.23C205.19 29.9775 227.511 53.1203 96.8622 29.9775C-65.1683 1.2756 -141.146 29.9775 -278.235 29.9775C-415.323 29.9775 -442.422 4.43799 -511.285 4.43799Z" fill="white"/>
</svg>
