<svg width="18" height="18" viewBox="0 0 18 18" fill="none" xmlns="http://www.w3.org/2000/svg">
<path fill-rule="evenodd" clip-rule="evenodd" d="M15.75 3.75L9 0.75L2.25 3.75V8.25C2.25 12.4125 5.13 16.305 9 17.25C12.87 16.305 15.75 12.4125 15.75 8.25V3.75ZM6.6 12.75C6.81 12.84 7.035 12.9 7.2 12.9C12.15 12.9 13.5 5.25 13.5 5.25C13.1775 5.895 11.475 6.135 9.705 6.375C9.50747 6.40652 9.30935 6.43686 9.11246 6.46702C8.60663 6.54449 8.10888 6.62072 7.65 6.7125C5.4 7.1625 4.5 9.075 4.5 9.975C4.5 10.875 5.2875 11.6625 5.2875 11.6625C6.75 7.5 11.25 7.5 11.25 7.5C7.3725 8.3625 6.3375 10.9425 5.4375 13.2075L5.3175 13.5L6.1725 13.8L6.6 12.75Z" fill="#0A1225"/>
</svg>
