<svg width="1600" height="139" viewBox="0 0 1600 139" fill="none" xmlns="http://www.w3.org/2000/svg">
<path d="M1207.1 27.7686C1363.62 -13.6838 1551.37 27.7686 1597 86.1935L1535.4 128H770L770 101.753C850.485 119.024 1050.58 69.2209 1207.1 27.7686Z" fill="#99D7DC"/>
<path d="M712.98 39.717C396.431 -46.9063 138.431 28.1157 49 76.4546V126L1597 132L1487 103C1368.78 129.212 1253 128 986 111.549C892.902 88.4527 799.638 63.4309 712.98 39.717Z" fill="#0C3349"/>
<path d="M686 60.0001C358 -29.5999 90.6667 48.0001 -2 98.0001V139H1602V60.0001C1433.33 97.3334 1014 149.6 686 60.0001Z" fill="#215E81"/>
</svg>
